HIERARCHY
ROOT Hips
{
    OFFSET   0.000000   0.000000   0.000000
    CHANNELS 6 Xposition Yposition Zposition Zrotation Xrotation Yrotation
    JOINT Chest
    {
        OFFSET   0.000000   8.007230   0.000000
        CHANNELS 3 Zrotation Xrotation Yrotation
        JOINT Chest2
        {
            OFFSET   0.000000  22.077100   0.000000
            CHANNELS 3 Zrotation Xrotation Yrotation
            JOINT Neck
            {
                OFFSET   0.000000  23.255100   0.000000
                CHANNELS 3 Zrotation Xrotation Yrotation
                JOINT Head
                {
                    OFFSET   0.000000  14.370100   1.956600
                    CHANNELS 3 Zrotation Xrotation Yrotation
                    End Site
                    {
                        OFFSET   0.000000  19.566000   0.000000
                    }
                }
            }
            JOINT LeftCollar
            {
                OFFSET   3.911900  19.017000  -0.467063
                CHANNELS 3 Zrotation Xrotation Yrotation
                JOINT LeftShoulder
                {
                    OFFSET  10.383700   0.000000   0.000000
                    CHANNELS 3 Zrotation Xrotation Yrotation
                    JOINT LeftElbow
                    {
                        OFFSET  26.662100   0.001193   0.000980
                        CHANNELS 3 Zrotation Xrotation Yrotation
                        JOINT LeftWrist
                        {
                            OFFSET  28.869000  -0.000059  -0.000082
                            CHANNELS 3 Zrotation Xrotation Yrotation
                            JOINT LeftFinger0
                            {
                                OFFSET   2.044650  -2.323450   3.252850
                                CHANNELS 3 Zrotation Xrotation Yrotation
                                JOINT LeftFinger01
                                {
                                    OFFSET   3.088130   0.000000   0.000000
                                    CHANNELS 3 Zrotation Xrotation Yrotation
                                    JOINT LeftFinger02
                                    {
                                        OFFSET   2.639460   0.000000   0.000000
                                        CHANNELS 3 Zrotation Xrotation Yrotation
                                        End Site
                                        {
                                            OFFSET   2.582190   0.000000   0.000000
                                        }
                                    }
                                }
                            }
                            JOINT LeftFinger1
                            {
                                OFFSET   8.364480   0.000000   3.252850
                                CHANNELS 3 Zrotation Xrotation Yrotation
                                JOINT LeftFinger11
                                {
                                    OFFSET   4.646930   0.000000   0.000000
                                    CHANNELS 3 Zrotation Xrotation Yrotation
                                    JOINT LeftFinger12
                                    {
                                        OFFSET   2.323470   0.000000   0.000000
                                        CHANNELS 3 Zrotation Xrotation Yrotation
                                        End Site
                                        {
                                            OFFSET   2.273050   0.000000   0.000000
                                        }
                                    }
                                }
                            }
                            JOINT LeftFinger2
                            {
                                OFFSET   8.364490   0.000016   1.078090
                                CHANNELS 3 Zrotation Xrotation Yrotation
                                JOINT LeftFinger21
                                {
                                    OFFSET   5.111610   0.000000   0.000000
                                    CHANNELS 3 Zrotation Xrotation Yrotation
                                    JOINT LeftFinger22
                                    {
                                        OFFSET   2.788150   0.000016   0.000000
                                        CHANNELS 3 Zrotation Xrotation Yrotation
                                        End Site
                                        {
                                            OFFSET   2.727660   0.000000   0.000000
                                        }
                                    }
                                }
                            }
                            JOINT LeftFinger3
                            {
                                OFFSET   7.899780   0.000015  -1.078090
                                CHANNELS 3 Zrotation Xrotation Yrotation
                                JOINT LeftFinger31
                                {
                                    OFFSET   4.646930   0.000000   0.000000
                                    CHANNELS 3 Zrotation Xrotation Yrotation
                                    JOINT LeftFinger32
                                    {
                                        OFFSET   2.323470   0.000000   0.000000
                                        CHANNELS 3 Zrotation Xrotation Yrotation
                                        End Site
                                        {
                                            OFFSET   2.273050   0.000000   0.000000
                                        }
                                    }
                                }
                            }
                            JOINT LeftFinger4
                            {
                                OFFSET   7.435090   0.000000  -3.252850
                                CHANNELS 3 Zrotation Xrotation Yrotation
                                JOINT LeftFinger41
                                {
                                    OFFSET   3.717550   0.000000   0.000000
                                    CHANNELS 3 Zrotation Xrotation Yrotation
                                    JOINT LeftFinger42
                                    {
                                        OFFSET   1.858770   0.000000   0.000000
                                        CHANNELS 3 Zrotation Xrotation Yrotation
                                        End Site
                                        {
                                            OFFSET   1.818440   0.000000   0.000000
                                        }
                                    }
                                }
                            }
                        }
                    }
                }
            }
            JOINT RightCollar
            {
                OFFSET  -3.911910  19.017000  -0.467062
                CHANNELS 3 Zrotation Xrotation Yrotation
                JOINT RightShoulder
                {
                    OFFSET -10.383700   0.000014   0.000000
                    CHANNELS 3 Zrotation Xrotation Yrotation
                    JOINT RightElbow
                    {
                        OFFSET -26.662100   0.001225   0.001091
                        CHANNELS 3 Zrotation Xrotation Yrotation
                        JOINT RightWrist
                        {
                            OFFSET -28.869000  -0.000020  -0.000085
                            CHANNELS 3 Zrotation Xrotation Yrotation
                            JOINT RightFinger0
                            {
                                OFFSET  -2.044650  -2.323490   3.252850
                                CHANNELS 3 Zrotation Xrotation Yrotation
                                JOINT RightFinger01
                                {
                                    OFFSET  -3.088130   0.000000   0.000000
                                    CHANNELS 3 Zrotation Xrotation Yrotation
                                    JOINT RightFinger02
                                    {
                                        OFFSET  -2.639460   0.000000   0.000000
                                        CHANNELS 3 Zrotation Xrotation Yrotation
                                        End Site
                                        {
                                            OFFSET  -2.582190   0.000000   0.000000
                                        }
                                    }
                                }
                            }
                            JOINT RightFinger1
                            {
                                OFFSET  -8.364480   0.000000   3.252850
                                CHANNELS 3 Zrotation Xrotation Yrotation
                                JOINT RightFinger11
                                {
                                    OFFSET  -4.646930   0.000000   0.000000
                                    CHANNELS 3 Zrotation Xrotation Yrotation
                                    JOINT RightFinger12
                                    {
                                        OFFSET  -2.323470   0.000000   0.000000
                                        CHANNELS 3 Zrotation Xrotation Yrotation
                                        End Site
                                        {
                                            OFFSET  -2.273050   0.000000   0.000000
                                        }
                                    }
                                }
                            }
                            JOINT RightFinger2
                            {
                                OFFSET  -8.364480   0.000000   1.078090
                                CHANNELS 3 Zrotation Xrotation Yrotation
                                JOINT RightFinger21
                                {
                                    OFFSET  -5.111620   0.000000   0.000000
                                    CHANNELS 3 Zrotation Xrotation Yrotation
                                    JOINT RightFinger22
                                    {
                                        OFFSET  -2.788160   0.000000   0.000000
                                        CHANNELS 3 Zrotation Xrotation Yrotation
                                        End Site
                                        {
                                            OFFSET  -2.727660   0.000000   0.000000
                                        }
                                    }
                                }
                            }
                            JOINT RightFinger3
                            {
                                OFFSET  -7.899780   0.000000  -1.078090
                                CHANNELS 3 Zrotation Xrotation Yrotation
                                JOINT RightFinger31
                                {
                                    OFFSET  -4.646930   0.000000   0.000000
                                    CHANNELS 3 Zrotation Xrotation Yrotation
                                    JOINT RightFinger32
                                    {
                                        OFFSET  -2.323470   0.000000   0.000000
                                        CHANNELS 3 Zrotation Xrotation Yrotation
                                        End Site
                                        {
                                            OFFSET  -2.273050   0.000000   0.000000
                                        }
                                    }
                                }
                            }
                            JOINT RightFinger4
                            {
                                OFFSET  -7.435090   0.000000  -3.252850
                                CHANNELS 3 Zrotation Xrotation Yrotation
                                JOINT RightFinger41
                                {
                                    OFFSET  -3.717550   0.000000   0.000000
                                    CHANNELS 3 Zrotation Xrotation Yrotation
                                    JOINT RightFinger42
                                    {
                                        OFFSET  -1.858760   0.000000   0.000000
                                        CHANNELS 3 Zrotation Xrotation Yrotation
                                        End Site
                                        {
                                            OFFSET  -1.818440   0.000000   0.000000
                                        }
                                    }
                                }
                            }
                        }
                    }
                }
            }
        }
    }
    JOINT LeftHip
    {
        OFFSET   9.783030   0.000000   0.000000
        CHANNELS 3 Zrotation Xrotation Yrotation
        JOINT LeftKnee
        {
            OFFSET   0.000063 -41.789100   0.000608
            CHANNELS 3 Zrotation Xrotation Yrotation
            JOINT LeftAnkle
            {
                OFFSET   0.000048 -41.133200  -0.000184
                CHANNELS 3 Zrotation Xrotation Yrotation
                JOINT LeftToe
                {
                    OFFSET   0.000000  -6.358960  14.674500
                    CHANNELS 3 Zrotation Xrotation Yrotation
                    End Site
                    {
                        OFFSET   0.000000   0.000000   3.913200
                    }
                }
            }
        }
    }
    JOINT RightHip
    {
        OFFSET  -9.783030   0.000000   0.000000
        CHANNELS 3 Zrotation Xrotation Yrotation
        JOINT RightKnee
        {
            OFFSET   0.000071 -41.789100   0.001239
            CHANNELS 3 Zrotation Xrotation Yrotation
            JOINT RightAnkle
            {
                OFFSET   0.000037 -41.133200  -0.000166
                CHANNELS 3 Zrotation Xrotation Yrotation
                JOINT RightToe
                {
                    OFFSET   0.000000  -6.358960  14.674500
                    CHANNELS 3 Zrotation Xrotation Yrotation
                    End Site
                    {
                        OFFSET   0.000000   0.000000   3.913200
                    }
                }
            }
        }
    }
}
MOTION
Frames: 4
Frame Time:   0.016667
  0.250183  89.447100   0.514238  -5.418840 -15.782400  -7.078320   1.119630   9.299980   0.924111   2.128320  18.615800   1.694970  -0.081249   0.742909  -0.000797  -0.134671   1.507240   2.064310  -7.213370  -1.879030  -2.479100 -43.668000  13.639800 -41.836600  45.104200 -10.761700 -79.488700  57.098700  41.325200 -51.166600  47.976900  42.519300 -86.037300  -8.937440   0.039662   0.086348   0.531293   0.018480   0.044829  -2.846380   1.279550 -23.581600  -2.547390   0.045950  -0.002300  -1.783160   0.032132  -0.005656  -6.526760   1.274120 -10.928000  -6.630330   0.030682   0.000996  -4.415800   0.020140   0.001230  -5.037630   0.723955  -7.746450  -5.071620   0.057212  -0.001500  -3.377700   0.037756   0.001331  -5.371830  -1.138670  12.319700  -8.193920   0.095513   0.013960  -5.457140   0.061980   0.017045  11.828800   0.660781   9.965960  22.492100  12.245500  42.171300 -48.122300 -10.100300  65.012400 -58.312900  21.093500  56.398400 -43.595500  43.529800  88.068000   6.534610   0.023080  -0.018343  -1.732690   0.012573  -0.012847   3.071170   1.622420  26.773900   2.810650   0.033929   0.007965   1.967460   0.023857   0.003479   5.339880   0.662190   6.815130   5.361440   0.027440  -0.000123   3.570740   0.018213  -0.001697   1.155190   0.016768  -0.535739   1.140630   0.037356   0.009464   0.759654   0.024993   0.002867   5.393800  -1.139810 -12.501300   8.287430   0.048688  -0.001100   5.519440   0.031640  -0.005135   2.512760  20.781800   3.763950   1.217370   0.150859   3.799710  -0.893653  -5.243180   2.861690  -0.000000   0.000000   0.000000   4.558000  17.725800  -5.399660  -0.956200   3.365490  -2.059730  -1.505760  -5.477100   3.489610  -0.000000   0.000000   0.000000
  0.271342  89.421600   0.514431  -5.456300 -15.793500  -7.158280   1.135290   9.312130   0.899246   2.163930  18.639600   1.641700  -0.080089   0.780669  -0.000621  -0.132523   1.584250   4.135150  -7.182090  -2.074130  -2.371590 -42.828500  14.218000 -42.084400  44.768500 -10.913000 -78.971500  57.952400  41.184100 -49.765500  46.859800  41.944000 -85.282600 -12.607600   0.040545   0.101782  -1.303780   0.018752   0.052033  -3.868200   1.542050 -21.217300  -3.389480   0.051648  -0.001600  -2.372630   0.036096  -0.006142  -7.166610   1.054200  -8.177240  -7.211420   0.036904   0.002035  -4.802810   0.024262   0.002133  -5.902930   0.567584  -4.934980  -5.887170   0.073107  -0.001347  -3.920850   0.048275   0.002383  -6.256550  -1.576670  14.742500  -9.626920   0.125165   0.016892  -6.411520   0.081290   0.021388  11.758200   0.591175  10.014000  21.038900  12.083200  42.463900 -47.669300  -9.873600  65.591800 -57.913000  20.907000  55.398700 -43.398500  43.333600  87.787600   8.168080   0.041750  -0.047201  -0.915963   0.019394  -0.024598   3.423980   1.616080  24.684700   3.058320   0.051395   0.008126   2.140830   0.036147   0.002554   5.639770   0.534391   5.139430   5.610160   0.038614  -0.001556   3.736370   0.025660  -0.002725   1.596410   0.005121  -2.204050   1.535680   0.057870   0.012860   1.022760   0.038755   0.004340   5.834020  -1.315340 -13.591500   8.916090   0.106241  -0.000914   5.938140   0.070107  -0.010106   2.515880  20.829200   3.756870   1.209140   0.137255   3.845140  -0.881814  -5.251900   2.899790  -0.000000   0.000000  -0.000000   4.569710  17.743400  -5.376900  -0.971428   3.379840  -2.049780  -1.495210  -5.487620   3.527560  -0.000000   0.000000   0.000000
  0.289731  89.398900   0.502374  -5.488470 -15.789800  -7.255500   1.140700   9.317010   0.905617   2.174070  18.649600   1.653980  -0.076920   0.815482  -0.000439  -0.127541   1.654880   6.172100  -7.196410  -2.212610  -2.350070 -43.159800  14.840100 -42.132300  44.775300 -11.671600 -77.864500  59.229700  41.808800 -48.170500  45.388400  41.056400 -84.140500 -16.036400   0.040487   0.093350  -3.018210   0.018496   0.049394  -4.792070   1.651380 -18.963900  -4.128660   0.040273  -0.000829  -2.890060   0.028113  -0.006526  -7.663620   0.764659  -5.567420  -7.667130   0.033541   0.002622  -5.106300   0.022021   0.003042  -6.657960   0.237458  -1.624420  -6.613540   0.072542  -0.001114  -4.404610   0.047868   0.003488  -7.115600  -2.132260  17.076600 -11.085000   0.119563   0.017715  -7.382630   0.077293   0.021571  11.673200   0.505834   9.997150  20.698600  12.158100  42.757400 -47.603700 -10.230500  65.124800 -58.838900  21.311500  54.625300 -43.096800  42.930500  87.192500  11.901200   0.060082  -0.083506   0.950573   0.026756  -0.043822   4.448100   1.757010  21.821000   3.874990   0.057378   0.007483   2.712500   0.040341   0.001984   6.340310   0.240110   2.182590   6.270930   0.036193  -0.003079   4.176440   0.024125  -0.003353   2.415390  -0.226125  -6.037430   2.343080   0.057331   0.012599   1.560490   0.038449   0.005261   6.766700  -1.813600 -15.640600  10.417900   0.138083  -0.003417   6.938350   0.090083  -0.015899   2.506810  20.863200   3.759630   1.203520   0.109928   3.887560  -0.868979  -5.242850   2.953000  -0.000000   0.000000   0.000000   4.581930  17.742300  -5.360510  -0.997782   3.395200  -2.032060  -1.486540  -5.490660   3.581690   0.000000   0.000000  -0.000000
  0.300207  89.377700   0.482428  -5.516970 -15.783400  -7.357270   1.140300   9.318480   0.921403   2.170330  18.652700   1.686000  -0.061692   0.845480  -0.000258  -0.100937   1.715240   8.145070  -7.248400  -2.323730  -2.347140 -44.584400  15.214900 -42.010000  44.657200 -12.424700 -76.903600  60.720700  42.820500 -46.079100  44.176200  40.078600 -82.913600 -19.008200   0.040086   0.070372  -4.504130   0.016707   0.036881  -5.546020   1.683850 -16.839300  -4.726710   0.019541   0.000000  -3.308690   0.013618  -0.006820  -8.080010   0.445790  -3.129410  -8.064270   0.023413   0.002846  -5.370800   0.015364   0.003925  -7.411510  -0.183312   1.665210  -7.373320   0.068589  -0.000782  -4.910630   0.045019   0.004627  -8.005860  -2.725960  19.063600 -12.643600   0.105469   0.018051  -8.420670   0.067498   0.021597  11.631400   0.398042   9.958430  20.525300  12.255300  42.928400 -47.493200 -10.858500  64.280600 -60.181700  22.034600  53.160800 -42.269300  42.060400  86.034700  16.208200   0.071013  -0.106605   3.104060   0.031090  -0.056031   5.714200   1.904690  18.339700   4.872740   0.059279   0.003869   3.410930   0.041576   0.000077   7.086540  -0.171283  -1.423750   7.007420   0.032561  -0.004593   4.666940   0.021727  -0.003829   3.315620  -0.590269 -10.073700   3.294180   0.054076   0.010771   2.193920   0.036313   0.005697   7.949260  -2.557480 -18.188000  12.407200   0.151434  -0.013224   8.263220   0.098080  -0.024528   2.487010  20.879300   3.766480   1.200650   0.090787   3.926130  -0.854579  -5.233770   3.012960   0.000000   0.000000  -0.000000   4.587110  17.732100  -5.347720  -1.026470   3.408900  -2.009920  -1.478090  -5.491020   3.642190   0.000000   0.000000   0.000000
